<?xml version="1.0" encoding="UTF-8" standalone="no"?>
<!DOCTYPE svg PUBLIC "-//W3C//DTD SVG 1.1//EN"
 "http://www.w3.org/Graphics/SVG/1.1/DTD/svg11.dtd">
<!-- Generated by graphviz version 2.47.3 (20210619.1520)
 -->
<!-- Title: dependencies Pages: 1 -->
<svg width="4170pt" height="247pt"
 viewBox="0.00 0.00 4170.00 246.80" xmlns="http://www.w3.org/2000/svg" xmlns:xlink="http://www.w3.org/1999/xlink">
<g id="graph0" class="graph" transform="scale(1 1) rotate(0) translate(4 242.8)">
<title>dependencies</title>
<polygon fill="white" stroke="transparent" points="-4,4 -4,-242.8 4166,-242.8 4166,4 -4,4"/>
<text text-anchor="middle" x="2081" y="-8.2" font-family="sans-serif" font-size="14.00">dependencies</text>
<g id="clust1" class="cluster">
<title>cluster_AppModule</title>
<polygon fill="none" stroke="black" stroke-dasharray="1,5" points="8,-32.8 8,-230.8 4154,-230.8 4154,-32.8 8,-32.8"/>
</g>
<g id="clust28" class="cluster">
<title>cluster_AppModule_imports</title>
<polygon fill="none" stroke="black" points="4002,-40.8 4002,-92.8 4146,-92.8 4146,-40.8 4002,-40.8"/>
</g>
<g id="clust30" class="cluster">
<title>cluster_AppModule_bootstrap</title>
<polygon fill="none" stroke="black" points="2155,-170.8 2155,-222.8 2279,-222.8 2279,-170.8 2155,-170.8"/>
</g>
<g id="clust31" class="cluster">
<title>cluster_AppModule_providers</title>
<polygon fill="none" stroke="black" points="3870,-40.8 3870,-92.8 3994,-92.8 3994,-40.8 3870,-40.8"/>
</g>
<g id="clust2" class="cluster">
<title>cluster_AppModule_declarations</title>
<polygon fill="none" stroke="black" points="16,-40.8 16,-92.8 3862,-92.8 3862,-40.8 16,-40.8"/>
</g>
<!-- AppComponent -->
<g id="node1" class="node">
<title>AppComponent</title>
<polygon fill="#ffffb3" stroke="black" points="3853.94,-84.8 3748.06,-84.8 3748.06,-48.8 3853.94,-48.8 3853.94,-84.8"/>
<text text-anchor="middle" x="3801" y="-62.6" font-family="Times,serif" font-size="14.00">AppComponent</text>
</g>
<!-- AppModule -->
<g id="node26" class="node">
<title>AppModule</title>
<polygon fill="#8dd3c7" stroke="black" points="2258.66,-149.8 2255.66,-153.8 2234.66,-153.8 2231.66,-149.8 2175.34,-149.8 2175.34,-113.8 2258.66,-113.8 2258.66,-149.8"/>
<text text-anchor="middle" x="2217" y="-127.6" font-family="Times,serif" font-size="14.00">AppModule</text>
</g>
<!-- AppComponent&#45;&gt;AppModule -->
<g id="edge1" class="edge">
<title>AppComponent&#45;&gt;AppModule</title>
<path fill="none" stroke="black" d="M3801,-84.81C3801,-107.29 3801,-142.8 3801,-142.8 3801,-142.8 2268.96,-142.8 2268.96,-142.8"/>
<polygon fill="black" stroke="black" points="2268.96,-139.3 2258.96,-142.8 2268.96,-146.3 2268.96,-139.3"/>
</g>
<!-- AuthComponent -->
<g id="node2" class="node">
<title>AuthComponent</title>
<polygon fill="#ffffb3" stroke="black" points="3730.83,-84.8 3621.17,-84.8 3621.17,-48.8 3730.83,-48.8 3730.83,-84.8"/>
<text text-anchor="middle" x="3676" y="-62.6" font-family="Times,serif" font-size="14.00">AuthComponent</text>
</g>
<!-- AuthComponent&#45;&gt;AppModule -->
<g id="edge2" class="edge">
<title>AuthComponent&#45;&gt;AppModule</title>
<path fill="none" stroke="black" d="M3676,-84.84C3676,-106.46 3676,-139.8 3676,-139.8 3676,-139.8 2268.7,-139.8 2268.7,-139.8"/>
<polygon fill="black" stroke="black" points="2268.7,-136.3 2258.7,-139.8 2268.7,-143.3 2268.7,-136.3"/>
</g>
<!-- CardComponent -->
<g id="node3" class="node">
<title>CardComponent</title>
<polygon fill="#ffffb3" stroke="black" points="3603.05,-84.8 3494.95,-84.8 3494.95,-48.8 3603.05,-48.8 3603.05,-84.8"/>
<text text-anchor="middle" x="3549" y="-62.6" font-family="Times,serif" font-size="14.00">CardComponent</text>
</g>
<!-- CardComponent&#45;&gt;AppModule -->
<g id="edge3" class="edge">
<title>CardComponent&#45;&gt;AppModule</title>
<path fill="none" stroke="black" d="M3549,-85.08C3549,-106.12 3549,-137.8 3549,-137.8 3549,-137.8 2268.69,-137.8 2268.69,-137.8"/>
<polygon fill="black" stroke="black" points="2268.69,-134.3 2258.69,-137.8 2268.69,-141.3 2268.69,-134.3"/>
</g>
<!-- CartComponent -->
<g id="node4" class="node">
<title>CartComponent</title>
<polygon fill="#ffffb3" stroke="black" points="3476.94,-84.8 3371.06,-84.8 3371.06,-48.8 3476.94,-48.8 3476.94,-84.8"/>
<text text-anchor="middle" x="3424" y="-62.6" font-family="Times,serif" font-size="14.00">CartComponent</text>
</g>
<!-- CartComponent&#45;&gt;AppModule -->
<g id="edge4" class="edge">
<title>CartComponent&#45;&gt;AppModule</title>
<path fill="none" stroke="black" d="M3424,-85.02C3424,-105.17 3424,-134.8 3424,-134.8 3424,-134.8 2268.9,-134.8 2268.9,-134.8"/>
<polygon fill="black" stroke="black" points="2268.9,-131.3 2258.9,-134.8 2268.9,-138.3 2268.9,-131.3"/>
</g>
<!-- CategoriesComponent -->
<g id="node5" class="node">
<title>CategoriesComponent</title>
<polygon fill="#ffffb3" stroke="black" points="3353.7,-84.8 3212.3,-84.8 3212.3,-48.8 3353.7,-48.8 3353.7,-84.8"/>
<text text-anchor="middle" x="3283" y="-62.6" font-family="Times,serif" font-size="14.00">CategoriesComponent</text>
</g>
<!-- CategoriesComponent&#45;&gt;AppModule -->
<g id="edge5" class="edge">
<title>CategoriesComponent&#45;&gt;AppModule</title>
<path fill="none" stroke="black" d="M3283,-84.91C3283,-104.14 3283,-131.8 3283,-131.8 3283,-131.8 2268.79,-131.8 2268.79,-131.8"/>
<polygon fill="black" stroke="black" points="2268.79,-128.3 2258.79,-131.8 2268.79,-135.3 2268.79,-128.3"/>
</g>
<!-- CategoryComponent -->
<g id="node6" class="node">
<title>CategoryComponent</title>
<polygon fill="#ffffb3" stroke="black" points="3194.15,-84.8 3061.85,-84.8 3061.85,-48.8 3194.15,-48.8 3194.15,-84.8"/>
<text text-anchor="middle" x="3128" y="-62.6" font-family="Times,serif" font-size="14.00">CategoryComponent</text>
</g>
<!-- CategoryComponent&#45;&gt;AppModule -->
<g id="edge6" class="edge">
<title>CategoryComponent&#45;&gt;AppModule</title>
<path fill="none" stroke="black" d="M3128,-85.02C3128,-103.63 3128,-129.8 3128,-129.8 3128,-129.8 2268.81,-129.8 2268.81,-129.8"/>
<polygon fill="black" stroke="black" points="2268.81,-126.3 2258.81,-129.8 2268.81,-133.3 2268.81,-126.3"/>
</g>
<!-- FooterComponent -->
<g id="node7" class="node">
<title>FooterComponent</title>
<polygon fill="#ffffb3" stroke="black" points="3043.88,-84.8 2926.12,-84.8 2926.12,-48.8 3043.88,-48.8 3043.88,-84.8"/>
<text text-anchor="middle" x="2985" y="-62.6" font-family="Times,serif" font-size="14.00">FooterComponent</text>
</g>
<!-- FooterComponent&#45;&gt;AppModule -->
<g id="edge7" class="edge">
<title>FooterComponent&#45;&gt;AppModule</title>
<path fill="none" stroke="black" d="M2985,-84.8C2985,-102.48 2985,-126.8 2985,-126.8 2985,-126.8 2268.84,-126.8 2268.84,-126.8"/>
<polygon fill="black" stroke="black" points="2268.84,-123.3 2258.84,-126.8 2268.84,-130.3 2268.84,-123.3"/>
</g>
<!-- HomefeatureComponent -->
<g id="node8" class="node">
<title>HomefeatureComponent</title>
<polygon fill="#ffffb3" stroke="black" points="2908.4,-84.8 2753.6,-84.8 2753.6,-48.8 2908.4,-48.8 2908.4,-84.8"/>
<text text-anchor="middle" x="2831" y="-62.6" font-family="Times,serif" font-size="14.00">HomefeatureComponent</text>
</g>
<!-- HomefeatureComponent&#45;&gt;AppModule -->
<g id="edge8" class="edge">
<title>HomefeatureComponent&#45;&gt;AppModule</title>
<path fill="none" stroke="black" d="M2831,-84.83C2831,-101.86 2831,-124.8 2831,-124.8 2831,-124.8 2268.72,-124.8 2268.72,-124.8"/>
<polygon fill="black" stroke="black" points="2268.72,-121.3 2258.72,-124.8 2268.72,-128.3 2268.72,-121.3"/>
</g>
<!-- HomepageComponent -->
<g id="node9" class="node">
<title>HomepageComponent</title>
<polygon fill="#ffffb3" stroke="black" points="2735.97,-84.8 2594.03,-84.8 2594.03,-48.8 2735.97,-48.8 2735.97,-84.8"/>
<text text-anchor="middle" x="2665" y="-62.6" font-family="Times,serif" font-size="14.00">HomepageComponent</text>
</g>
<!-- HomepageComponent&#45;&gt;AppModule -->
<g id="edge9" class="edge">
<title>HomepageComponent&#45;&gt;AppModule</title>
<path fill="none" stroke="black" d="M2665,-84.81C2665,-100.85 2665,-121.8 2665,-121.8 2665,-121.8 2268.74,-121.8 2268.74,-121.8"/>
<polygon fill="black" stroke="black" points="2268.74,-118.3 2258.74,-121.8 2268.74,-125.3 2268.74,-118.3"/>
</g>
<!-- HomesliderComponent -->
<g id="node10" class="node">
<title>HomesliderComponent</title>
<polygon fill="#ffffb3" stroke="black" points="2576.15,-84.8 2429.85,-84.8 2429.85,-48.8 2576.15,-48.8 2576.15,-84.8"/>
<text text-anchor="middle" x="2503" y="-62.6" font-family="Times,serif" font-size="14.00">HomesliderComponent</text>
</g>
<!-- HomesliderComponent&#45;&gt;AppModule -->
<g id="edge10" class="edge">
<title>HomesliderComponent&#45;&gt;AppModule</title>
<path fill="none" stroke="black" d="M2503,-85.04C2503,-100.37 2503,-119.8 2503,-119.8 2503,-119.8 2268.89,-119.8 2268.89,-119.8"/>
<polygon fill="black" stroke="black" points="2268.89,-116.3 2258.89,-119.8 2268.89,-123.3 2268.89,-116.3"/>
</g>
<!-- LoginComponent -->
<g id="node11" class="node">
<title>LoginComponent</title>
<polygon fill="#ffffb3" stroke="black" points="2411.28,-84.8 2296.72,-84.8 2296.72,-48.8 2411.28,-48.8 2411.28,-84.8"/>
<text text-anchor="middle" x="2354" y="-62.6" font-family="Times,serif" font-size="14.00">LoginComponent</text>
</g>
<!-- LoginComponent&#45;&gt;AppModule -->
<g id="edge11" class="edge">
<title>LoginComponent&#45;&gt;AppModule</title>
<path fill="none" stroke="black" d="M2354,-84.85C2354,-99.17 2354,-116.8 2354,-116.8 2354,-116.8 2268.85,-116.8 2268.85,-116.8"/>
<polygon fill="black" stroke="black" points="2268.85,-113.3 2258.85,-116.8 2268.85,-120.3 2268.85,-113.3"/>
</g>
<!-- NavbarComponent -->
<g id="node12" class="node">
<title>NavbarComponent</title>
<polygon fill="#ffffb3" stroke="black" points="2278.03,-84.8 2155.97,-84.8 2155.97,-48.8 2278.03,-48.8 2278.03,-84.8"/>
<text text-anchor="middle" x="2217" y="-62.6" font-family="Times,serif" font-size="14.00">NavbarComponent</text>
</g>
<!-- NavbarComponent&#45;&gt;AppModule -->
<g id="edge12" class="edge">
<title>NavbarComponent&#45;&gt;AppModule</title>
<path fill="none" stroke="black" d="M2217,-84.91C2217,-84.91 2217,-103.79 2217,-103.79"/>
<polygon fill="black" stroke="black" points="2213.5,-103.79 2217,-113.79 2220.5,-103.79 2213.5,-103.79"/>
</g>
<!-- OrderComponent -->
<g id="node13" class="node">
<title>OrderComponent</title>
<polygon fill="#ffffb3" stroke="black" points="2137.97,-84.8 2024.03,-84.8 2024.03,-48.8 2137.97,-48.8 2137.97,-84.8"/>
<text text-anchor="middle" x="2081" y="-62.6" font-family="Times,serif" font-size="14.00">OrderComponent</text>
</g>
<!-- OrderComponent&#45;&gt;AppModule -->
<g id="edge13" class="edge">
<title>OrderComponent&#45;&gt;AppModule</title>
<path fill="none" stroke="black" d="M2081,-84.85C2081,-99.17 2081,-116.8 2081,-116.8 2081,-116.8 2165.09,-116.8 2165.09,-116.8"/>
<polygon fill="black" stroke="black" points="2165.09,-120.3 2175.09,-116.8 2165.09,-113.3 2165.09,-120.3"/>
</g>
<!-- OrderconfirmationComponent -->
<g id="node14" class="node">
<title>OrderconfirmationComponent</title>
<polygon fill="#ffffb3" stroke="black" points="2006.29,-84.8 1819.71,-84.8 1819.71,-48.8 2006.29,-48.8 2006.29,-84.8"/>
<text text-anchor="middle" x="1913" y="-62.6" font-family="Times,serif" font-size="14.00">OrderconfirmationComponent</text>
</g>
<!-- OrderconfirmationComponent&#45;&gt;AppModule -->
<g id="edge14" class="edge">
<title>OrderconfirmationComponent&#45;&gt;AppModule</title>
<path fill="none" stroke="black" d="M1913,-85.04C1913,-100.37 1913,-119.8 1913,-119.8 1913,-119.8 2165.05,-119.8 2165.05,-119.8"/>
<polygon fill="black" stroke="black" points="2165.05,-123.3 2175.05,-119.8 2165.05,-116.3 2165.05,-123.3"/>
</g>
<!-- OrderformComponent -->
<g id="node15" class="node">
<title>OrderformComponent</title>
<polygon fill="#ffffb3" stroke="black" points="1801.69,-84.8 1660.31,-84.8 1660.31,-48.8 1801.69,-48.8 1801.69,-84.8"/>
<text text-anchor="middle" x="1731" y="-62.6" font-family="Times,serif" font-size="14.00">OrderformComponent</text>
</g>
<!-- OrderformComponent&#45;&gt;AppModule -->
<g id="edge15" class="edge">
<title>OrderformComponent&#45;&gt;AppModule</title>
<path fill="none" stroke="black" d="M1731,-84.81C1731,-100.85 1731,-121.8 1731,-121.8 1731,-121.8 2165.14,-121.8 2165.14,-121.8"/>
<polygon fill="black" stroke="black" points="2165.14,-125.3 2175.14,-121.8 2165.14,-118.3 2165.14,-125.3"/>
</g>
<!-- OrderloginComponent -->
<g id="node16" class="node">
<title>OrderloginComponent</title>
<polygon fill="#ffffb3" stroke="black" points="1642.26,-84.8 1499.74,-84.8 1499.74,-48.8 1642.26,-48.8 1642.26,-84.8"/>
<text text-anchor="middle" x="1571" y="-62.6" font-family="Times,serif" font-size="14.00">OrderloginComponent</text>
</g>
<!-- OrderloginComponent&#45;&gt;AppModule -->
<g id="edge16" class="edge">
<title>OrderloginComponent&#45;&gt;AppModule</title>
<path fill="none" stroke="black" d="M1571,-84.83C1571,-101.86 1571,-124.8 1571,-124.8 1571,-124.8 2165.11,-124.8 2165.11,-124.8"/>
<polygon fill="black" stroke="black" points="2165.11,-128.3 2175.11,-124.8 2165.11,-121.3 2165.11,-128.3"/>
</g>
<!-- PaymentComponent -->
<g id="node17" class="node">
<title>PaymentComponent</title>
<polygon fill="#ffffb3" stroke="black" points="1481.33,-84.8 1350.67,-84.8 1350.67,-48.8 1481.33,-48.8 1481.33,-84.8"/>
<text text-anchor="middle" x="1416" y="-62.6" font-family="Times,serif" font-size="14.00">PaymentComponent</text>
</g>
<!-- PaymentComponent&#45;&gt;AppModule -->
<g id="edge17" class="edge">
<title>PaymentComponent&#45;&gt;AppModule</title>
<path fill="none" stroke="black" d="M1416,-84.8C1416,-102.48 1416,-126.8 1416,-126.8 1416,-126.8 2165.34,-126.8 2165.34,-126.8"/>
<polygon fill="black" stroke="black" points="2165.34,-130.3 2175.34,-126.8 2165.34,-123.3 2165.34,-130.3"/>
</g>
<!-- PaymentconfirmationComponent -->
<g id="node18" class="node">
<title>PaymentconfirmationComponent</title>
<polygon fill="#ffffb3" stroke="black" points="1333.14,-84.8 1130.86,-84.8 1130.86,-48.8 1333.14,-48.8 1333.14,-84.8"/>
<text text-anchor="middle" x="1232" y="-62.6" font-family="Times,serif" font-size="14.00">PaymentconfirmationComponent</text>
</g>
<!-- PaymentconfirmationComponent&#45;&gt;AppModule -->
<g id="edge18" class="edge">
<title>PaymentconfirmationComponent&#45;&gt;AppModule</title>
<path fill="none" stroke="black" d="M1232,-85.02C1232,-103.63 1232,-129.8 1232,-129.8 1232,-129.8 2165.3,-129.8 2165.3,-129.8"/>
<polygon fill="black" stroke="black" points="2165.3,-133.3 2175.3,-129.8 2165.3,-126.3 2165.3,-133.3"/>
</g>
<!-- ProductComponent -->
<g id="node19" class="node">
<title>ProductComponent</title>
<polygon fill="#ffffb3" stroke="black" points="1112.38,-84.8 987.62,-84.8 987.62,-48.8 1112.38,-48.8 1112.38,-84.8"/>
<text text-anchor="middle" x="1050" y="-62.6" font-family="Times,serif" font-size="14.00">ProductComponent</text>
</g>
<!-- ProductComponent&#45;&gt;AppModule -->
<g id="edge19" class="edge">
<title>ProductComponent&#45;&gt;AppModule</title>
<path fill="none" stroke="black" d="M1050,-84.91C1050,-104.14 1050,-131.8 1050,-131.8 1050,-131.8 2165.12,-131.8 2165.12,-131.8"/>
<polygon fill="black" stroke="black" points="2165.12,-135.3 2175.12,-131.8 2165.12,-128.3 2165.12,-135.3"/>
</g>
<!-- ProductsComponent -->
<g id="node20" class="node">
<title>ProductsComponent</title>
<polygon fill="#ffffb3" stroke="black" points="969.33,-84.8 838.67,-84.8 838.67,-48.8 969.33,-48.8 969.33,-84.8"/>
<text text-anchor="middle" x="904" y="-62.6" font-family="Times,serif" font-size="14.00">ProductsComponent</text>
</g>
<!-- ProductsComponent&#45;&gt;AppModule -->
<g id="edge20" class="edge">
<title>ProductsComponent&#45;&gt;AppModule</title>
<path fill="none" stroke="black" d="M904,-85.02C904,-105.17 904,-134.8 904,-134.8 904,-134.8 2165.17,-134.8 2165.17,-134.8"/>
<polygon fill="black" stroke="black" points="2165.17,-138.3 2175.17,-134.8 2165.17,-131.3 2165.17,-138.3"/>
</g>
<!-- RecommendedproductsComponent -->
<g id="node21" class="node">
<title>RecommendedproductsComponent</title>
<polygon fill="#ffffb3" stroke="black" points="820.52,-84.8 607.48,-84.8 607.48,-48.8 820.52,-48.8 820.52,-84.8"/>
<text text-anchor="middle" x="714" y="-62.6" font-family="Times,serif" font-size="14.00">RecommendedproductsComponent</text>
</g>
<!-- RecommendedproductsComponent&#45;&gt;AppModule -->
<g id="edge21" class="edge">
<title>RecommendedproductsComponent&#45;&gt;AppModule</title>
<path fill="none" stroke="black" d="M714,-85.08C714,-106.12 714,-137.8 714,-137.8 714,-137.8 2165.23,-137.8 2165.23,-137.8"/>
<polygon fill="black" stroke="black" points="2165.23,-141.3 2175.23,-137.8 2165.23,-134.3 2165.23,-141.3"/>
</g>
<!-- SearchComponent -->
<g id="node22" class="node">
<title>SearchComponent</title>
<polygon fill="#ffffb3" stroke="black" points="589.92,-84.8 470.08,-84.8 470.08,-48.8 589.92,-48.8 589.92,-84.8"/>
<text text-anchor="middle" x="530" y="-62.6" font-family="Times,serif" font-size="14.00">SearchComponent</text>
</g>
<!-- SearchComponent&#45;&gt;AppModule -->
<g id="edge22" class="edge">
<title>SearchComponent&#45;&gt;AppModule</title>
<path fill="none" stroke="black" d="M530,-84.84C530,-106.46 530,-139.8 530,-139.8 530,-139.8 2165.3,-139.8 2165.3,-139.8"/>
<polygon fill="black" stroke="black" points="2165.3,-143.3 2175.3,-139.8 2165.3,-136.3 2165.3,-143.3"/>
</g>
<!-- ShippingComponent -->
<g id="node23" class="node">
<title>ShippingComponent</title>
<polygon fill="#ffffb3" stroke="black" points="451.9,-84.8 320.1,-84.8 320.1,-48.8 451.9,-48.8 451.9,-84.8"/>
<text text-anchor="middle" x="386" y="-62.6" font-family="Times,serif" font-size="14.00">ShippingComponent</text>
</g>
<!-- ShippingComponent&#45;&gt;AppModule -->
<g id="edge23" class="edge">
<title>ShippingComponent&#45;&gt;AppModule</title>
<path fill="none" stroke="black" d="M386,-84.81C386,-107.29 386,-142.8 386,-142.8 386,-142.8 2165.32,-142.8 2165.32,-142.8"/>
<polygon fill="black" stroke="black" points="2165.32,-146.3 2175.32,-142.8 2165.32,-139.3 2165.32,-146.3"/>
</g>
<!-- TopproductsComponent -->
<g id="node24" class="node">
<title>TopproductsComponent</title>
<polygon fill="#ffffb3" stroke="black" points="302.1,-84.8 149.9,-84.8 149.9,-48.8 302.1,-48.8 302.1,-84.8"/>
<text text-anchor="middle" x="226" y="-62.6" font-family="Times,serif" font-size="14.00">TopproductsComponent</text>
</g>
<!-- TopproductsComponent&#45;&gt;AppModule -->
<g id="edge24" class="edge">
<title>TopproductsComponent&#45;&gt;AppModule</title>
<path fill="none" stroke="black" d="M226,-84.89C226,-107.93 226,-144.8 226,-144.8 226,-144.8 2164.96,-144.8 2164.96,-144.8"/>
<polygon fill="black" stroke="black" points="2164.96,-148.3 2174.96,-144.8 2164.96,-141.3 2164.96,-148.3"/>
</g>
<!-- UserComponent -->
<g id="node25" class="node">
<title>UserComponent</title>
<polygon fill="#ffffb3" stroke="black" points="131.76,-84.8 24.24,-84.8 24.24,-48.8 131.76,-48.8 131.76,-84.8"/>
<text text-anchor="middle" x="78" y="-62.6" font-family="Times,serif" font-size="14.00">UserComponent</text>
</g>
<!-- UserComponent&#45;&gt;AppModule -->
<g id="edge25" class="edge">
<title>UserComponent&#45;&gt;AppModule</title>
<path fill="none" stroke="black" d="M78,-85.18C78,-109.08 78,-147.8 78,-147.8 78,-147.8 2165.23,-147.8 2165.23,-147.8"/>
<polygon fill="black" stroke="black" points="2165.23,-151.3 2175.23,-147.8 2165.23,-144.3 2165.23,-151.3"/>
</g>
<!-- AppComponent  -->
<g id="node28" class="node">
<title>AppComponent </title>
<polygon fill="#80b1d3" stroke="black" points="2271.44,-214.8 2162.56,-214.8 2162.56,-178.8 2271.44,-178.8 2271.44,-214.8"/>
<text text-anchor="middle" x="2217" y="-192.6" font-family="Times,serif" font-size="14.00">AppComponent </text>
</g>
<!-- AppModule&#45;&gt;AppComponent  -->
<g id="edge27" class="edge">
<title>AppModule&#45;&gt;AppComponent </title>
<path fill="none" stroke="black" stroke-dasharray="1,5" d="M2217,-149.91C2217,-149.91 2217,-168.79 2217,-168.79"/>
<polygon fill="black" stroke="black" points="2213.5,-168.79 2217,-178.79 2220.5,-168.79 2213.5,-168.79"/>
</g>
<!-- AppRoutingModule -->
<g id="node27" class="node">
<title>AppRoutingModule</title>
<polygon fill="#8dd3c7" stroke="black" points="4138.27,-84.8 4135.27,-88.8 4114.27,-88.8 4111.27,-84.8 4009.73,-84.8 4009.73,-48.8 4138.27,-48.8 4138.27,-84.8"/>
<text text-anchor="middle" x="4074" y="-62.6" font-family="Times,serif" font-size="14.00">AppRoutingModule</text>
</g>
<!-- AppRoutingModule&#45;&gt;AppModule -->
<g id="edge26" class="edge">
<title>AppRoutingModule&#45;&gt;AppModule</title>
<path fill="none" stroke="black" d="M4074,-85.18C4074,-109.08 4074,-147.8 4074,-147.8 4074,-147.8 2268.83,-147.8 2268.83,-147.8"/>
<polygon fill="black" stroke="black" points="2268.83,-144.3 2258.83,-147.8 2268.83,-151.3 2268.83,-144.3"/>
</g>
<!-- ApiService -->
<g id="node29" class="node">
<title>ApiService</title>
<ellipse fill="#fdb462" stroke="black" cx="3932" cy="-66.8" rx="54.45" ry="18"/>
<text text-anchor="middle" x="3932" y="-62.6" font-family="Times,serif" font-size="14.00">ApiService</text>
</g>
<!-- ApiService&#45;&gt;AppModule -->
<g id="edge28" class="edge">
<title>ApiService&#45;&gt;AppModule</title>
<path fill="none" stroke="black" d="M3932,-84.89C3932,-107.93 3932,-144.8 3932,-144.8 3932,-144.8 2268.97,-144.8 2268.97,-144.8"/>
<polygon fill="black" stroke="black" points="2268.97,-141.3 2258.97,-144.8 2268.97,-148.3 2268.97,-141.3"/>
</g>
</g>
</svg>
